<?xml version="1.0" standalone="no"?>
<!DOCTYPE svg PUBLIC "-//W3C//DTD SVG 20010904//EN"
 "http://www.w3.org/TR/2001/REC-SVG-20010904/DTD/svg10.dtd">
<svg version="1.0" xmlns="http://www.w3.org/2000/svg"
 width="920.000000pt" height="756.000000pt" viewBox="0 0 920.000000 756.000000"
 preserveAspectRatio="xMidYMid meet">
<metadata>
Created by potrace 1.16, written by Peter Selinger 2001-2019
</metadata>
<g transform="translate(0.000000,756.000000) scale(0.100000,-0.100000)"
fill="#000000" stroke="none">
<path d="M2913 6425 c-171 -44 -328 -144 -475 -303 -150 -162 -248 -354 -300
-582 -19 -84 -16 -377 5 -478 16 -78 16 -88 0 -155 -27 -121 3 -238 85 -329
20 -22 53 -51 73 -63 25 -16 51 -51 91 -123 70 -125 131 -206 225 -303 l74
-75 -3 -150 -3 -149 -110 -8 c-228 -17 -611 -103 -751 -168 -72 -34 -75 -40
-188 -341 -31 -82 -81 -214 -112 -295 -30 -82 -66 -175 -79 -208 -35 -88 -111
-293 -129 -345 -8 -25 -51 -151 -96 -280 -45 -129 -92 -266 -105 -305 -13 -38
-49 -142 -80 -230 -136 -388 -138 -394 -132 -467 l4 -68 -328 0 -328 0 -25
-24 c-32 -29 -33 -59 -3 -91 l22 -25 865 -5 c476 -2 908 -6 960 -7 l95 -3 3
-49 c4 -59 29 -98 74 -117 41 -17 612 -19 843 -2 135 10 494 3 582 -11 15 -2
53 -7 83 -11 140 -17 303 -73 341 -117 33 -37 26 -53 -98 -211 -24 -30 -49
-75 -57 -102 -13 -42 -13 -52 0 -84 25 -62 117 -101 242 -101 46 0 71 -4 67
-10 -4 -6 25 -10 79 -10 51 0 86 4 86 10 0 6 38 10 95 10 88 0 96 2 110 24 17
26 11 52 -14 65 -9 4 -68 5 -131 1 -217 -14 -432 7 -446 44 -9 22 13 60 79
141 79 98 97 132 97 185 0 76 -42 124 -150 173 -149 67 -375 98 -729 100
l-245 2 -7 32 c-3 17 -3 36 1 42 4 8 430 10 1475 9 1293 -3 1469 -5 1476 -18
4 -8 10 -26 13 -40 3 -14 22 -45 43 -69 91 -107 269 -182 528 -222 111 -18
162 -20 350 -16 121 3 236 8 255 11 214 39 247 48 359 97 239 105 296 316 124
458 -38 31 -152 91 -173 91 -6 0 -8 5 -4 11 4 7 23 9 53 5 78 -11 193 -26 271
-36 41 -5 201 -26 355 -46 154 -20 312 -40 350 -44 215 -25 191 -26 222 7 15
16 70 55 121 88 51 32 97 65 102 74 11 21 11 2840 0 2861 -5 9 -50 66 -100
126 -50 60 -98 124 -105 142 -19 44 -49 53 -142 42 -121 -14 -393 -48 -553
-70 -80 -10 -203 -26 -275 -35 -71 -9 -164 -21 -205 -26 -41 -5 -109 -14 -150
-20 -41 -5 -109 -14 -150 -19 -161 -21 -307 -39 -360 -45 -30 -3 -100 -12
-155 -20 -55 -8 -176 -24 -270 -35 -93 -12 -215 -27 -270 -35 -55 -7 -143 -18
-195 -25 -52 -6 -122 -15 -155 -20 -33 -5 -123 -16 -200 -25 -270 -31 -289
-36 -313 -82 -9 -16 -12 -328 -12 -1218 0 -1320 -4 -1243 62 -1263 18 -6 92
-18 163 -27 72 -9 162 -20 200 -25 39 -5 126 -17 195 -25 155 -19 186 -23 280
-36 77 -11 167 -22 280 -35 73 -8 100 -18 100 -39 0 -20 -9 -24 -86 -34 -83
-12 -253 -62 -326 -95 -60 -28 -137 -80 -156 -108 -12 -17 -39 -18 -477 -18
-360 0 -466 3 -472 12 -4 7 -114 330 -244 718 -130 388 -239 712 -242 720 -3
8 -26 74 -52 145 -25 72 -50 139 -55 150 -5 11 -17 47 -28 80 -11 33 -34 98
-52 145 -17 47 -45 123 -61 170 -93 265 -120 332 -138 354 -58 68 -339 146
-776 216 -165 26 -169 28 -154 46 6 8 25 14 41 14 49 0 148 57 216 123 79 77
210 270 270 397 82 175 130 310 176 495 13 55 31 125 40 155 46 161 57 214 67
305 33 313 -76 608 -319 867 -136 144 -283 247 -422 295 -145 50 -344 58 -497
18z m224 -926 c15 -6 37 -15 48 -20 11 -4 67 -24 125 -45 58 -20 110 -40 115
-43 6 -4 33 -16 60 -26 88 -32 298 -143 366 -194 95 -70 120 -106 120 -172 1
-107 -66 -355 -151 -559 -116 -280 -323 -545 -441 -565 -99 -17 -312 34 -449
108 -168 91 -340 264 -429 431 l-20 40 29 18 c61 36 30 89 -58 102 -126 19
-211 120 -212 251 0 37 7 73 18 95 16 33 19 35 67 34 31 -1 73 -12 108 -28
l57 -26 0 -115 c0 -71 4 -115 10 -115 15 0 88 47 137 89 63 52 176 199 244
317 66 114 162 311 198 407 12 30 18 32 58 16z m5485 -2804 l-2 -1498 -43 7
c-23 4 -73 11 -112 16 -144 18 -242 30 -317 40 -43 5 -115 15 -160 20 -46 6
-114 15 -153 20 -38 5 -126 17 -195 25 -69 9 -156 20 -195 25 -38 5 -108 14
-155 20 -47 6 -116 15 -155 20 -74 11 -353 46 -470 60 -38 5 -106 13 -150 19
-44 6 -118 15 -165 21 -47 5 -101 12 -120 15 -19 3 -71 10 -115 15 -102 13
-208 26 -310 40 -44 6 -102 13 -130 16 -27 3 -66 9 -85 13 l-35 7 -3 1107 c-2
881 0 1108 10 1112 11 4 180 26 503 66 155 20 511 65 580 74 22 3 74 10 115
15 41 5 109 14 150 19 41 6 149 19 240 31 91 11 197 24 235 30 159 22 241 32
465 60 129 16 307 39 395 50 301 40 360 46 370 39 7 -5 9 -515 7 -1504z
m-5578 1124 c39 -12 96 -27 126 -33 l55 -11 3 -52 3 -52 -53 -16 c-76 -24
-189 -30 -256 -15 -57 13 -113 36 -122 50 -3 5 -4 60 -2 123 l3 116 86 -44
c47 -24 117 -54 157 -66z m421 -209 c77 -11 168 -27 230 -40 22 -5 67 -14 100
-20 114 -23 260 -63 325 -89 73 -30 74 -31 126 -176 58 -163 85 -237 104 -290
10 -27 30 -84 45 -125 15 -41 35 -97 45 -125 58 -154 120 -333 120 -343 0 -6
-15 -15 -32 -21 -26 -7 -395 -146 -470 -176 -17 -7 -18 5 -18 167 0 198 -4
212 -60 206 l-35 -3 -5 -785 -5 -785 -424 0 -425 0 -8 30 c-4 17 -20 42 -35
57 -27 24 -45 35 -193 116 -36 19 -90 49 -120 66 -114 65 -136 71 -255 71
-104 -1 -115 -3 -200 -38 -63 -26 -101 -36 -125 -33 -19 2 -43 4 -52 5 -17 1
-18 26 -18 380 l0 378 71 92 c75 98 83 127 39 151 -33 18 -54 4 -115 -75 -31
-41 -62 -75 -67 -75 -9 0 -170 83 -193 100 -5 4 -55 31 -110 60 -102 55 -195
106 -230 126 -21 13 -30 -16 120 379 29 77 85 226 125 330 115 306 113 301
150 320 118 61 511 147 736 161 107 6 112 6 155 -19 76 -45 158 -60 294 -55
66 3 134 11 150 18 71 30 91 41 115 60 16 12 34 18 50 15 14 -3 57 -9 95 -15z
m-1957 -1334 c86 -48 149 -83 267 -146 115 -61 169 -92 173 -95 2 -2 -81 -156
-184 -342 -103 -186 -198 -358 -212 -383 -13 -25 -28 -49 -33 -55 -18 -19 -8
-33 29 -39 36 -6 75 -9 262 -21 52 -4 111 -8 130 -10 19 -2 89 -7 155 -10
l120 -7 95 38 c81 33 106 39 170 39 61 0 84 -5 125 -26 81 -42 226 -120 278
-151 26 -15 51 -28 56 -28 4 0 16 -9 26 -20 19 -21 14 -47 -11 -57 -14 -5
-111 28 -214 74 -90 41 -196 53 -275 32 -38 -10 -55 -17 -191 -80 l-61 -29
-559 6 c-625 7 -602 4 -638 78 -23 48 -22 52 73 326 40 113 87 250 106 305 57
170 116 339 125 360 4 11 25 70 45 130 48 142 53 155 60 155 3 0 40 -20 83
-44z m3132 -101 c20 -60 116 -347 213 -637 97 -291 177 -530 177 -533 0 -3
-94 -5 -208 -5 l-208 0 -39 83 c-21 45 -61 129 -88 187 -27 58 -64 137 -82
175 -18 39 -52 111 -75 160 -57 122 -88 187 -158 337 -84 177 -83 162 -15 188
32 12 67 26 78 30 94 40 343 129 354 127 9 -1 29 -46 51 -112z m-574 -247 c7
-24 39 -94 124 -273 29 -60 64 -135 77 -165 14 -30 47 -100 73 -155 26 -55 64
-136 85 -180 20 -44 43 -93 51 -109 8 -16 14 -33 14 -38 0 -4 -101 -8 -225 -8
l-225 0 0 475 c0 443 4 520 26 453z m-2101 -636 c-6 -6 -276 15 -283 22 -2 3
13 35 34 73 44 80 154 279 210 378 l39 70 3 -269 c1 -148 0 -271 -3 -274z
m805 -382 c84 -33 155 -58 158 -56 13 14 42 -17 42 -44 0 -52 -16 -54 -341
-56 -326 -1 -362 4 -367 47 -4 33 38 84 87 106 194 85 212 85 421 3z"/>
<path d="M7965 3945 c-108 -14 -259 -31 -395 -46 -128 -14 -276 -30 -430 -49
-41 -5 -106 -12 -145 -15 -38 -4 -82 -9 -97 -11 -14 -2 -68 -8 -120 -14 -220
-24 -248 -32 -305 -92 -60 -64 -102 -175 -103 -271 0 -126 68 -266 156 -322
l48 -29 160 0 c405 1 1262 16 1362 24 162 13 246 60 319 180 76 125 87 305 28
432 -63 135 -172 213 -308 222 -38 2 -115 -2 -170 -9z m52 -274 c9 -14 9 -23
-3 -39 -12 -17 -12 -22 2 -33 13 -11 18 -10 27 6 7 11 14 34 17 50 4 24 10 30
30 30 21 0 26 -5 28 -31 2 -22 9 -34 23 -37 25 -7 24 -37 -2 -44 -15 -4 -19
-11 -15 -27 3 -11 6 -35 6 -53 0 -25 5 -32 22 -35 34 -5 34 -34 2 -51 -55 -29
-91 14 -93 107 0 21 -6 45 -13 54 -11 13 -14 0 -18 -74 -5 -87 -6 -89 -30 -89
l-25 0 -1 111 c-1 61 -4 116 -8 122 -9 15 11 52 27 52 7 0 17 -8 24 -19z
m-100 -3 c14 -24 11 -36 -18 -71 l-29 -36 40 -62 c43 -67 46 -79 28 -97 -22
-22 -38 -13 -73 43 -20 30 -39 55 -44 55 -13 0 -21 -26 -21 -65 0 -40 -20 -60
-42 -42 -12 9 -17 41 -21 130 -4 64 -4 124 -1 132 16 40 72 -3 61 -46 -10 -38
12 -28 48 21 37 50 57 61 72 38z m-609 -60 c7 -7 12 -18 12 -26 0 -7 7 -20 15
-29 14 -14 14 -17 0 -32 -8 -10 -15 -36 -15 -58 0 -32 4 -42 20 -46 20 -5 28
7 12 17 -11 6 -7 53 7 88 20 53 95 66 130 22 16 -21 20 -38 17 -83 -3 -68 -7
-76 -45 -89 -24 -8 -37 -7 -65 8 -28 14 -36 15 -36 4 0 -18 -49 -30 -69 -17
-10 6 -19 31 -22 62 -4 28 -13 66 -20 83 -10 24 -10 33 -1 36 7 2 12 16 12 31
0 41 22 55 48 29z m-597 -49 c21 -21 23 -60 5 -114 -4 -12 -1 -28 8 -40 14
-19 15 -17 16 26 0 99 90 138 126 55 10 -23 13 -26 14 -11 1 40 26 57 82 59
l53 1 8 -90 c8 -99 5 -126 -19 -149 -19 -19 -74 -21 -96 -3 -23 18 -30 47 -13
53 12 5 12 10 4 27 -11 20 -12 20 -31 -6 -26 -35 -81 -38 -109 -4 l-18 22 -1
-21 c0 -23 -20 -37 -37 -26 -6 4 -20 26 -32 50 -28 54 -40 54 -34 -2 5 -38 2
-46 -16 -55 -19 -10 -22 -9 -31 15 -6 15 -9 70 -8 123 l3 96 30 6 c54 12 75 9
96 -12z m513 -31 c5 -8 6 -23 2 -33 -6 -16 -8 -16 -31 -1 -28 18 -35 20 -35 7
0 -5 18 -16 40 -25 48 -19 61 -53 36 -92 -15 -22 -23 -25 -64 -22 -41 3 -48 6
-56 31 -8 21 -7 30 2 36 10 6 9 14 -2 36 -11 21 -12 33 -4 51 19 42 88 49 112
12z"/>
<path d="M6165 2521 c-3 -11 -44 -54 -91 -97 -114 -103 -134 -136 -134 -217 0
-36 6 -71 13 -81 18 -24 95 -33 121 -13 29 22 10 39 -40 36 -50 -3 -62 4 -44
26 8 10 30 15 62 15 59 0 88 13 88 41 0 20 -4 21 -65 14 -53 -5 -65 -4 -65 8
0 23 21 34 75 41 69 9 85 15 85 32 0 10 -13 14 -45 14 -53 0 -57 10 -15 40 35
25 80 97 80 128 0 28 -17 37 -25 13z"/>
<path d="M6217 2285 c-7 -70 -41 -130 -122 -215 -84 -88 -102 -128 -75 -170 7
-12 11 -10 19 10 15 37 40 70 109 146 84 91 96 115 97 196 0 87 -20 111 -28
33z"/>
</g>
</svg>
